<?xml version="1.0" standalone="no"?>
<!DOCTYPE svg PUBLIC "-//W3C//DTD SVG 20010904//EN"
 "http://www.w3.org/TR/2001/REC-SVG-20010904/DTD/svg10.dtd">
<svg version="1.0" xmlns="http://www.w3.org/2000/svg"
 width="512.000000pt" height="512.000000pt" viewBox="0 0 512.000000 512.000000"
 preserveAspectRatio="xMidYMid meet">
<metadata>
Created by potrace 1.11, written by Peter Selinger 2001-2013
</metadata>
<g transform="translate(0.000000,512.000000) scale(0.100000,-0.100000)"
fill="#000000" stroke="none">
<path d="M1971 5103 c-48 -40 -51 -187 -6 -295 5 -13 -2 -17 -37 -23 -221 -36
-404 -131 -569 -295 -173 -171 -264 -355 -305 -610 -4 -25 -8 -281 -9 -570 -1
-522 -1 -525 -23 -560 -86 -137 -44 -316 93 -395 49 -28 90 -38 175 -41 36 -1
67 -3 70 -3 3 -1 5 -57 5 -125 -1 -149 14 -220 62 -293 62 -95 158 -152 269
-161 92 -7 218 29 255 74 30 36 46 36 119 -1 l70 -35 0 -68 0 -67 -94 -2
c-103 -2 -142 -15 -186 -64 -15 -17 -51 -37 -90 -50 -263 -88 -456 -291 -538
-564 l-27 -90 0 -413 0 -414 24 -19 c23 -18 58 -19 1336 -19 l1314 0 20 26
c20 26 21 37 21 398 0 209 -5 399 -11 436 -48 303 -260 555 -550 656 -45 15
-86 37 -103 56 -48 48 -80 59 -179 62 l-92 2 -3 66 -3 65 83 42 c105 52 236
150 318 238 54 57 172 223 183 257 2 6 74 10 183 11 196 2 221 7 294 65 60 47
90 106 104 205 5 32 -19 120 -44 162 l-22 38 -3 545 c-1 300 -5 556 -9 570 -3
14 -11 50 -17 80 -5 30 -22 87 -36 125 -141 378 -481 646 -878 690 -32 4 -74
13 -93 21 -60 25 -194 110 -327 208 -77 57 -139 96 -153 96 -63 0 -81 -39 -75
-164 4 -83 4 -88 -14 -81 -10 4 -43 16 -73 26 -106 37 -220 100 -291 159 -76
63 -103 72 -138 43z m-427 -2793 c14 -5 26 -15 26 -21 0 -28 122 -191 202
-271 48 -49 88 -91 88 -94 0 -3 -19 -14 -42 -24 -78 -36 -168 -22 -230 33 -60
53 -71 92 -73 250 -1 75 -1 137 1 137 1 0 14 -4 28 -10z"/>
</g>
</svg>
